<?xml version="1.0" encoding="UTF-8"?>
<svg xmlns="http://www.w3.org/2000/svg" xmlns:xlink="http://www.w3.org/1999/xlink" width="150px" height="150px" viewBox="0 0 150 150" version="1.1">
<g id="surface1">
<path style=" stroke:none;fill-rule:nonzero;fill:rgb(0%,0%,0%);fill-opacity:1;" d="M 63.023438 24.105469 C 61.972656 24.472656 61.261719 25.371094 61.5 26.019531 C 61.6875 26.503906 61.925781 26.675781 62.574219 26.761719 C 63.128906 26.835938 63.152344 26.847656 62.882812 26.964844 C 62.367188 27.1875 61.003906 28.246094 60.140625 29.109375 C 58.238281 30.980469 56.90625 33.441406 56.34375 36.140625 C 56.097656 37.347656 56.0625 40.105469 56.296875 41.25 C 56.480469 42.175781 57.128906 44.121094 57.511719 44.859375 L 57.761719 45.355469 L 59.367188 44.558594 C 60.253906 44.121094 61.292969 43.617188 61.675781 43.441406 C 62.058594 43.269531 63.679688 42.472656 65.296875 41.699219 C 66.914062 40.917969 68.261719 40.269531 68.308594 40.269531 C 68.34375 40.269531 68.503906 40.144531 68.652344 39.980469 C 68.808594 39.820312 68.976562 39.691406 69.046875 39.691406 C 69.105469 39.691406 69.058594 39.773438 68.929688 39.867188 C 68.8125 39.964844 68.976562 39.925781 69.285156 39.773438 C 69.609375 39.609375 70.964844 38.953125 72.285156 38.308594 C 76.761719 36.140625 77.132812 35.953125 77.179688 35.917969 C 77.261719 35.859375 76.359375 34.964844 76.238281 34.964844 C 76.175781 34.964844 75.105469 35.457031 73.855469 36.070312 C 71.835938 37.050781 71.503906 37.246094 70.785156 37.941406 C 70.074219 38.621094 70.058594 38.628906 70.617188 38.042969 C 70.964844 37.6875 71.214844 37.382812 71.179688 37.382812 C 71.144531 37.382812 70.753906 37.558594 70.3125 37.777344 C 69.878906 37.988281 68.167969 38.824219 66.519531 39.632812 C 64.871094 40.441406 62.976562 41.367188 62.308594 41.675781 C 61.640625 42 60.519531 42.535156 59.8125 42.878906 C 59.109375 43.222656 58.488281 43.5 58.417969 43.5 C 58.261719 43.5 57.726562 41.785156 57.5625 40.691406 C 57.378906 39.464844 57.496094 36.890625 57.796875 35.746094 C 58.058594 34.738281 58.6875 33.152344 58.917969 32.871094 C 59.011719 32.785156 59.074219 32.667969 59.074219 32.621094 C 59.074219 32.582031 59.238281 32.320312 59.425781 32.058594 C 59.621094 31.777344 59.894531 31.371094 60.046875 31.152344 C 60.394531 30.621094 61.628906 29.4375 62.488281 28.777344 C 62.859375 28.5 63.703125 28.003906 64.359375 27.679688 C 65.390625 27.1875 65.976562 26.976562 67.546875 26.605469 L 67.878906 26.527344 L 67.324219 25.964844 L 66.785156 25.40625 L 65.976562 25.628906 C 65.527344 25.753906 65.019531 25.925781 64.832031 26.035156 C 64.417969 26.238281 64.417969 26.167969 64.785156 25.6875 C 65.644531 24.558594 64.535156 23.558594 63.023438 24.105469 Z M 69.925781 38.808594 C 69.925781 38.824219 69.75 38.988281 69.558594 39.1875 L 69.175781 39.519531 L 69.511719 39.140625 C 69.832031 38.792969 69.925781 38.714844 69.925781 38.808594 Z M 69.925781 38.808594 "/>
<path style=" stroke:none;fill-rule:nonzero;fill:rgb(0%,0%,0%);fill-opacity:1;" d="M 68.402344 25.152344 C 67.972656 25.214844 67.453125 25.285156 67.261719 25.324219 L 66.902344 25.40625 L 67.222656 25.738281 C 67.394531 25.917969 67.59375 26.042969 67.652344 25.996094 C 67.714844 25.964844 67.730469 25.988281 67.691406 26.042969 C 67.652344 26.109375 67.691406 26.238281 67.800781 26.320312 C 67.941406 26.4375 68.367188 26.457031 69.441406 26.4375 C 72.597656 26.367188 75.703125 27.496094 78.035156 29.535156 L 78.585938 30.035156 L 79.324219 29.367188 L 79.003906 29.722656 L 78.667969 30.09375 L 79.269531 30.820312 C 79.808594 31.488281 80.535156 32.605469 80.535156 32.785156 C 80.535156 32.8125 79.605469 33.300781 78.449219 33.855469 L 76.359375 34.871094 L 76.847656 35.367188 L 77.34375 35.871094 L 77.761719 35.644531 C 77.988281 35.527344 79.105469 34.972656 80.25 34.429688 C 81.394531 33.890625 82.335938 33.425781 82.359375 33.402344 C 82.382812 33.378906 82.261719 33.09375 82.097656 32.746094 C 81.472656 31.523438 80.464844 30.152344 79.441406 29.132812 C 77.238281 26.929688 74.675781 25.664062 71.527344 25.214844 C 70.214844 25.027344 69.621094 25.011719 68.402344 25.152344 Z M 68.402344 25.152344 "/>
<path style=" stroke:none;fill-rule:nonzero;fill:rgb(0%,0%,0%);fill-opacity:1;" d="M 75.632812 37.730469 C 74.414062 37.871094 73.105469 38.675781 72.324219 39.761719 C 72.011719 40.199219 71.90625 40.269531 71.535156 40.269531 C 69.191406 40.269531 67.308594 41.847656 66.890625 44.144531 C 66.761719 44.835938 66.714844 44.917969 66.464844 44.964844 C 65.792969 45.058594 65.097656 45.378906 64.476562 45.855469 C 63.261719 46.808594 62.738281 47.894531 62.746094 49.441406 C 62.746094 49.949219 62.769531 50.457031 62.792969 50.574219 C 62.8125 50.746094 62.667969 50.835938 61.949219 51.046875 C 59.644531 51.714844 59.414062 53.0625 61.441406 53.917969 C 63.402344 54.75 67.730469 55.238281 74.191406 55.335938 C 81.023438 55.453125 86.226562 55.082031 89.296875 54.261719 C 90.773438 53.871094 91.082031 53.714844 91.285156 53.238281 C 91.359375 53.019531 91.523438 52.753906 91.640625 52.652344 C 91.902344 52.40625 91.894531 52.285156 91.582031 51.914062 C 91.269531 51.542969 90.84375 51.308594 89.953125 51.058594 C 89.226562 50.847656 89.25 50.90625 89.597656 49.964844 C 89.894531 49.167969 89.792969 47.675781 89.378906 46.808594 C 88.777344 45.574219 87.402344 44.480469 86.132812 44.238281 C 85.691406 44.15625 85.6875 44.167969 85.832031 44.378906 C 85.925781 44.488281 85.605469 44.203125 85.105469 43.730469 C 84.5625 43.214844 84.230469 42.957031 84.261719 43.097656 C 84.574219 44.238281 84.355469 45.371094 83.691406 46.152344 L 83.285156 46.617188 L 83.527344 47.011719 C 83.917969 47.644531 84.035156 47.675781 84.371094 47.367188 C 84.796875 46.972656 85.347656 46.144531 85.453125 45.773438 C 85.488281 45.597656 85.535156 45.464844 85.546875 45.464844 C 85.558594 45.464844 85.855469 45.542969 86.191406 45.644531 C 88.308594 46.269531 89.121094 48.75 87.832031 50.597656 C 87.441406 51.164062 86.457031 51.773438 85.777344 51.878906 L 85.269531 51.941406 L 85.269531 53.226562 L 85.941406 53.15625 C 86.628906 53.097656 87.347656 52.800781 88.003906 52.308594 L 88.371094 52.027344 L 89.15625 52.222656 C 90.253906 52.488281 90.371094 52.570312 89.941406 52.730469 C 86.917969 53.882812 76.800781 54.378906 68.308594 53.792969 L 67.222656 53.714844 L 67.261719 53.15625 C 67.285156 52.628906 67.285156 52.617188 66.957031 52.617188 C 66.046875 52.617188 64.5 51.597656 64.5 51.011719 C 64.5 50.882812 64.417969 50.699219 64.3125 50.597656 C 64.199219 50.480469 64.105469 50.132812 64.074219 49.6875 C 63.988281 48.714844 64.261719 47.929688 64.878906 47.261719 C 65.441406 46.675781 65.917969 46.40625 66.597656 46.3125 C 67.074219 46.246094 67.105469 46.269531 67.261719 46.640625 C 67.335938 46.847656 67.640625 47.308594 67.902344 47.652344 C 68.167969 48 68.464844 48.519531 68.582031 48.796875 C 68.761719 49.261719 68.847656 50.226562 68.746094 50.628906 C 68.699219 50.8125 69.691406 51.402344 69.808594 51.261719 C 70.003906 51.058594 70.167969 50.273438 70.144531 49.761719 L 70.105469 49.214844 L 70.707031 49.246094 L 71.308594 49.292969 L 71.308594 48.035156 L 70.6875 47.894531 C 69.964844 47.738281 69.308594 47.308594 68.808594 46.664062 C 68.308594 46.027344 68.15625 45.464844 68.214844 44.511719 C 68.273438 43.824219 68.34375 43.628906 68.722656 43.058594 C 69 42.667969 69.402344 42.277344 69.738281 42.058594 C 70.824219 41.390625 72.714844 41.582031 73.558594 42.464844 L 73.878906 42.796875 L 74.390625 42.441406 C 74.667969 42.230469 74.871094 42.023438 74.847656 41.953125 C 74.808594 41.824219 73.808594 40.996094 73.429688 40.777344 C 73.238281 40.664062 73.269531 40.605469 73.855469 40.011719 C 74.367188 39.511719 74.628906 39.332031 75.1875 39.175781 C 76.359375 38.824219 77.644531 39.09375 78.558594 39.867188 C 78.914062 40.167969 78.925781 40.199219 78.75 40.382812 C 78.535156 40.628906 78.609375 40.855469 79.074219 41.285156 L 79.347656 41.550781 L 79.785156 41.296875 C 80.132812 41.085938 80.414062 41.035156 81.105469 41.035156 C 81.585938 41.019531 82.105469 41.0625 82.269531 41.121094 C 82.488281 41.191406 82.359375 41.019531 81.808594 40.453125 C 81.140625 39.773438 81.011719 39.691406 80.621094 39.691406 C 80.226562 39.691406 80.097656 39.621094 79.714844 39.1875 C 79.175781 38.574219 77.941406 37.902344 77.035156 37.738281 C 76.652344 37.675781 76.335938 37.628906 76.335938 37.628906 C 76.324219 37.640625 76.011719 37.6875 75.632812 37.730469 Z M 64.105469 52.675781 C 64.871094 53.414062 64.824219 53.4375 63.230469 53.085938 C 62.15625 52.847656 61.546875 52.640625 61.640625 52.546875 C 61.707031 52.476562 63.09375 52.074219 63.324219 52.050781 C 63.402344 52.050781 63.761719 52.324219 64.105469 52.675781 Z M 64.105469 52.675781 "/>
<path style=" stroke:none;fill-rule:nonzero;fill:rgb(0%,0%,0%);fill-opacity:1;" d="M 82.324219 40.808594 C 82.972656 41.4375 84 42.464844 84.621094 43.097656 L 85.738281 44.25 L 85.6875 43.582031 C 85.523438 41.667969 83.761719 39.878906 81.902344 39.726562 L 81.175781 39.679688 Z M 82.324219 40.808594 "/>
<path style=" stroke:none;fill-rule:nonzero;fill:rgb(0%,0%,0%);fill-opacity:1;" d="M 74.882812 43.40625 C 74.738281 43.738281 74.550781 44.179688 74.464844 44.390625 L 74.308594 44.761719 L 73.894531 44.582031 C 73.664062 44.488281 73.464844 44.425781 73.441406 44.441406 C 73.324219 44.582031 73.050781 45.632812 73.121094 45.667969 C 73.175781 45.679688 73.476562 45.84375 73.800781 46.027344 C 74.8125 46.617188 75.5625 48.1875 75.394531 49.371094 C 75.253906 50.367188 74.441406 51.621094 73.824219 51.832031 C 73.707031 51.878906 73.738281 52.011719 73.964844 52.476562 C 74.121094 52.800781 74.285156 53.0625 74.320312 53.074219 C 74.355469 53.074219 74.621094 52.894531 74.90625 52.675781 C 76.808594 51.230469 77.308594 48.425781 76.011719 46.441406 C 75.519531 45.679688 75.519531 45.09375 76.011719 44.109375 L 76.382812 43.394531 L 75.890625 43.097656 C 75.609375 42.9375 75.332031 42.808594 75.261719 42.808594 C 75.191406 42.808594 75.023438 43.082031 74.882812 43.40625 Z M 74.882812 43.40625 "/>
<path style=" stroke:none;fill-rule:nonzero;fill:rgb(0%,0%,0%);fill-opacity:1;" d="M 78.011719 45.855469 C 77.835938 46.558594 77.835938 46.570312 78.230469 46.730469 C 78.957031 47.035156 79.652344 48.261719 79.785156 49.511719 C 79.941406 50.761719 80.738281 52.261719 81.472656 52.691406 C 81.65625 52.808594 81.808594 52.941406 81.808594 52.988281 C 81.808594 53.226562 82.050781 53.019531 82.324219 52.546875 L 82.640625 52.027344 L 82.222656 51.621094 C 82.003906 51.402344 81.667969 50.976562 81.496094 50.675781 C 81.214844 50.203125 81.175781 50.011719 81.175781 49.214844 C 81.175781 48.585938 81.230469 48.175781 81.355469 47.929688 L 81.542969 47.574219 L 80.953125 47.25 C 80.628906 47.0625 80.132812 46.675781 79.847656 46.382812 C 79.292969 45.808594 78.609375 45.347656 78.324219 45.347656 C 78.207031 45.347656 78.09375 45.535156 78.011719 45.855469 Z M 78.011719 45.855469 "/>
<path style=" stroke:none;fill-rule:nonzero;fill:rgb(0%,0%,0%);fill-opacity:1;" d="M 71.941406 58.917969 C 69.230469 59.402344 66.558594 60.75 64.523438 62.621094 L 63.679688 63.402344 L 64.261719 63.964844 L 64.824219 64.523438 L 65.859375 63.621094 C 67.546875 62.15625 69.441406 61.167969 71.503906 60.667969 C 72.402344 60.464844 72.957031 60.425781 76.292969 60.378906 C 79.347656 60.332031 80.273438 60.355469 81.207031 60.511719 C 83.441406 60.867188 85.292969 61.652344 87.082031 63.011719 C 89.488281 64.847656 91.074219 67.238281 91.878906 70.261719 L 92.238281 71.597656 L 92.285156 79.035156 C 92.308594 84.371094 92.285156 86.675781 92.191406 87.175781 C 91.871094 88.785156 90.726562 90.261719 89.214844 90.941406 C 88.535156 91.269531 88.292969 91.3125 87.152344 91.359375 L 85.847656 91.417969 L 85.847656 85.6875 L 85.476562 85.285156 C 85.222656 85.003906 85.199219 84.957031 85.394531 85.128906 C 85.570312 85.285156 85.730469 85.347656 85.777344 85.292969 C 85.808594 85.238281 85.824219 82.523438 85.808594 79.261719 L 85.785156 73.324219 L 84.230469 73.324219 L 84.230469 83.929688 L 84.609375 84.347656 C 84.980469 84.738281 84.980469 84.75 84.621094 84.425781 C 84.441406 84.253906 84.253906 84.117188 84.214844 84.117188 C 84.191406 84.117188 84.1875 85.753906 84.207031 87.75 L 84.238281 91.382812 L 69.464844 91.382812 L 69.464844 86.0625 C 69.464844 81.011719 69.449219 80.746094 69.261719 80.894531 C 69.070312 81.046875 69.070312 81.046875 69.261719 80.8125 C 69.441406 80.597656 69.464844 80.238281 69.464844 76.988281 L 69.464844 73.382812 L 67.847656 73.382812 L 67.847656 77.785156 C 67.847656 81.253906 67.878906 82.152344 67.996094 82.082031 C 68.109375 82.011719 68.109375 82.035156 67.996094 82.167969 C 67.878906 82.285156 67.847656 83.378906 67.847656 86.847656 L 67.847656 91.382812 L 66.785156 91.382812 C 64.605469 91.382812 63.023438 90.496094 62.035156 88.707031 C 61.394531 87.5625 61.382812 87.441406 61.382812 79.785156 C 61.382812 75.425781 61.429688 72.355469 61.511719 71.714844 C 61.761719 69.632812 62.976562 66.761719 64.222656 65.308594 C 64.5 64.988281 64.730469 64.675781 64.730469 64.628906 C 64.730469 64.582031 64.5 64.324219 64.222656 64.050781 C 63.855469 63.691406 63.667969 63.574219 63.542969 63.644531 C 62.90625 64.011719 61.121094 67.027344 60.585938 68.621094 C 59.8125 70.902344 59.847656 70.5 59.808594 79.097656 C 59.761719 85.902344 59.785156 87.046875 59.941406 87.75 C 60.488281 90.214844 62.621094 92.34375 65.0625 92.871094 C 65.402344 92.941406 66.164062 93 66.75 93 L 67.847656 93 L 67.847656 102.117188 L 69.464844 102.117188 L 69.488281 97.582031 L 69.519531 93.058594 L 84.175781 93.058594 L 84.207031 97.582031 L 84.230469 102.117188 L 85.847656 102.117188 L 85.847656 93 L 86.976562 93 C 87.597656 93 88.394531 92.917969 88.738281 92.835938 C 90.597656 92.355469 92.261719 91.058594 93.09375 89.441406 C 93.9375 87.832031 93.941406 87.714844 93.890625 79.082031 C 93.832031 70.800781 93.832031 70.785156 93.140625 68.769531 C 92.214844 66.09375 90.902344 64.199219 88.441406 61.972656 C 87.214844 60.878906 84.785156 59.667969 82.6875 59.109375 C 81.535156 58.800781 81.472656 58.800781 77.191406 58.777344 C 73.808594 58.753906 72.667969 58.777344 71.941406 58.917969 Z M 68.769531 81.378906 C 68.769531 81.402344 68.628906 81.542969 68.457031 81.703125 L 68.132812 81.980469 L 68.414062 81.65625 C 68.675781 81.371094 68.769531 81.285156 68.769531 81.378906 Z M 68.769531 81.378906 "/>
<path style=" stroke:none;fill-rule:nonzero;fill:rgb(0%,0%,0%);fill-opacity:1;" d="M 76.035156 99.632812 L 76.035156 102.117188 L 77.652344 102.117188 L 77.628906 99.65625 L 77.597656 97.214844 L 76.824219 97.175781 L 76.035156 97.144531 Z M 76.035156 99.632812 "/>
<path style=" stroke:none;fill-rule:nonzero;fill:rgb(0%,0%,0%);fill-opacity:1;" d="M 35.941406 118.664062 C 35.894531 119.011719 35.894531 119.34375 35.941406 119.414062 C 35.988281 119.488281 36.464844 119.535156 37.167969 119.535156 L 38.308594 119.535156 L 38.308594 123.1875 L 39.117188 123.980469 L 39.925781 124.777344 L 39.925781 119.550781 L 41.109375 119.511719 L 42.285156 119.480469 L 42.324219 118.753906 L 42.355469 118.035156 L 36.011719 118.035156 Z M 35.941406 118.664062 "/>
<path style=" stroke:none;fill-rule:nonzero;fill:rgb(0%,0%,0%);fill-opacity:1;" d="M 44.722656 119.441406 C 44.425781 120.230469 44.058594 121.199219 43.902344 121.617188 C 43.738281 122.035156 43.429688 122.859375 43.199219 123.464844 C 42.621094 124.964844 42.117188 126.378906 42.117188 126.496094 C 42.117188 126.542969 42.496094 126.574219 42.957031 126.558594 L 43.785156 126.519531 L 44.121094 125.558594 L 44.441406 124.617188 L 47.824219 124.617188 L 48.164062 125.597656 L 48.496094 126.574219 L 49.335938 126.574219 C 49.808594 126.574219 50.191406 126.542969 50.191406 126.496094 C 50.191406 126.464844 50.042969 126.035156 49.855469 125.550781 C 49.371094 124.3125 48.632812 122.34375 48.117188 120.925781 C 47.871094 120.253906 47.527344 119.332031 47.355469 118.871094 L 47.019531 118.035156 L 45.261719 118.035156 Z M 46.675781 121.347656 C 46.917969 122.097656 47.15625 122.761719 47.203125 122.8125 C 47.4375 123.070312 47.25 123.117188 46.144531 123.117188 C 45.253906 123.117188 44.988281 123.082031 45.035156 122.964844 C 45.117188 122.738281 45.941406 120.300781 45.988281 120.140625 C 46.097656 119.785156 46.269531 120.105469 46.675781 121.347656 Z M 46.675781 121.347656 "/>
<path style=" stroke:none;fill-rule:nonzero;fill:rgb(0%,0%,0%);fill-opacity:1;" d="M 51.347656 122.308594 L 51.347656 126.574219 L 56.535156 126.574219 L 56.535156 125.203125 L 54.726562 125.167969 L 52.902344 125.132812 L 52.871094 121.582031 L 52.847656 118.035156 L 51.347656 118.035156 Z M 51.347656 122.308594 "/>
<path style=" stroke:none;fill-rule:nonzero;fill:rgb(0%,0%,0%);fill-opacity:1;" d="M 57.773438 118.121094 C 57.726562 118.152344 57.691406 120.070312 57.691406 122.378906 L 57.691406 126.558594 L 58.40625 126.597656 C 58.808594 126.609375 60.023438 126.621094 61.121094 126.597656 L 63.117188 126.5625 L 63.117188 125.191406 L 61.246094 125.167969 L 59.367188 125.132812 L 59.332031 124.121094 L 59.296875 123.117188 L 62.769531 123.117188 L 62.769531 121.617188 L 59.308594 121.617188 L 59.308594 119.535156 L 63.117188 119.535156 L 63.117188 118.035156 L 60.488281 118.035156 C 59.035156 118.035156 57.808594 118.074219 57.773438 118.121094 Z M 57.773438 118.121094 "/>
<path style=" stroke:none;fill-rule:nonzero;fill:rgb(0%,0%,0%);fill-opacity:1;" d="M 64.617188 122.308594 L 64.617188 126.574219 L 65.167969 126.585938 C 65.464844 126.585938 65.835938 126.609375 65.988281 126.621094 L 66.253906 126.65625 L 66.207031 123.609375 C 66.1875 121.949219 66.1875 120.574219 66.230469 120.574219 C 66.261719 120.574219 66.808594 121.429688 67.429688 122.480469 C 68.058594 123.535156 68.605469 124.40625 68.644531 124.441406 C 68.691406 124.464844 68.964844 124.261719 69.238281 123.964844 C 69.726562 123.472656 69.738281 123.441406 69.574219 123.175781 C 68.605469 121.582031 67.546875 119.808594 67.511719 119.714844 C 67.488281 119.652344 67.238281 119.25 66.957031 118.824219 L 66.464844 118.035156 L 64.617188 118.035156 Z M 64.617188 122.308594 "/>
<path style=" stroke:none;fill-rule:nonzero;fill:rgb(0%,0%,0%);fill-opacity:1;" d="M 70.035156 120.585938 C 70.035156 122.582031 70.074219 123.117188 70.191406 123.046875 C 70.285156 122.988281 70.285156 123.011719 70.167969 123.152344 C 70.082031 123.253906 70.035156 123.449219 70.074219 123.574219 C 70.128906 123.820312 69.988281 123.890625 69.855469 123.679688 C 69.773438 123.558594 68.769531 124.453125 68.769531 124.652344 C 68.769531 124.707031 69.011719 125.167969 69.324219 125.667969 L 69.867188 126.5625 L 70.707031 126.574219 L 71.535156 126.574219 L 71.535156 118.035156 L 70.035156 118.035156 Z M 70.949219 122.367188 C 70.6875 122.652344 70.441406 122.882812 70.417969 122.882812 C 70.324219 122.882812 71.25 121.855469 71.34375 121.847656 C 71.390625 121.847656 71.214844 122.074219 70.949219 122.367188 Z M 70.949219 122.367188 "/>
<path style=" stroke:none;fill-rule:nonzero;fill:rgb(0%,0%,0%);fill-opacity:1;" d="M 72.808594 118.785156 L 72.808594 119.535156 L 73.246094 119.535156 C 73.488281 119.535156 73.753906 119.464844 73.832031 119.390625 C 73.949219 119.296875 73.972656 119.285156 73.917969 119.390625 C 73.855469 119.488281 74.019531 119.535156 74.480469 119.558594 L 75.128906 119.597656 L 75.175781 126.519531 L 75.957031 126.558594 L 76.738281 126.585938 L 76.707031 122.953125 C 76.6875 120.65625 76.707031 119.355469 76.785156 119.425781 C 76.847656 119.488281 77.402344 119.535156 78.023438 119.535156 L 79.152344 119.535156 L 79.152344 118.035156 L 75.417969 118.035156 L 75.925781 118.582031 L 76.441406 119.132812 L 75.867188 118.59375 L 75.285156 118.035156 L 74.652344 118.652344 L 74.019531 119.25 L 74.597656 118.640625 L 75.164062 118.035156 L 72.808594 118.035156 Z M 72.808594 118.785156 "/>
<path style=" stroke:none;fill-rule:nonzero;fill:rgb(0%,0%,0%);fill-opacity:1;" d="M 82.964844 121.808594 L 82.964844 125.582031 L 83.402344 126.058594 L 83.824219 126.519531 L 83.402344 126.128906 L 82.964844 125.722656 L 82.964844 126.597656 L 83.480469 126.558594 C 83.769531 126.535156 84 126.558594 84 126.597656 C 84 126.632812 84.09375 126.65625 84.207031 126.632812 C 84.308594 126.609375 84.441406 126.585938 84.496094 126.585938 C 84.542969 126.574219 84.574219 125.769531 84.574219 124.785156 L 84.574219 122.988281 L 86.402344 123.023438 L 88.214844 123.058594 L 88.269531 124.847656 C 88.308594 125.824219 88.359375 126.621094 88.417969 126.597656 C 88.464844 126.585938 88.785156 126.574219 89.132812 126.574219 L 89.769531 126.574219 L 89.769531 118.035156 L 88.269531 118.035156 L 88.269531 121.5 L 84.574219 121.5 L 84.574219 118.035156 L 82.964844 118.035156 Z M 82.964844 121.808594 "/>
<path style=" stroke:none;fill-rule:nonzero;fill:rgb(0%,0%,0%);fill-opacity:1;" d="M 91.40625 121.238281 C 91.441406 124.292969 91.453125 124.464844 91.707031 124.972656 C 92.019531 125.605469 92.644531 126.253906 93.214844 126.542969 C 93.535156 126.691406 93.902344 126.75 94.675781 126.75 C 95.605469 126.75 95.769531 126.714844 96.285156 126.417969 C 96.925781 126.058594 97.476562 125.390625 97.761719 124.640625 C 97.925781 124.222656 97.964844 123.65625 97.964844 121.097656 L 97.964844 118.035156 L 96.472656 118.035156 L 96.441406 121.003906 C 96.402344 124.3125 96.332031 124.652344 95.605469 125.085938 C 95.144531 125.367188 94.199219 125.378906 93.808594 125.109375 C 92.976562 124.535156 92.882812 124.105469 92.882812 120.761719 L 92.882812 118.035156 L 91.371094 118.035156 Z M 91.40625 121.238281 "/>
<path style=" stroke:none;fill-rule:nonzero;fill:rgb(0%,0%,0%);fill-opacity:1;" d="M 99.574219 122.308594 L 99.574219 126.574219 L 101.074219 126.574219 L 101.074219 123.558594 C 101.074219 121.453125 101.109375 120.5625 101.191406 120.644531 C 101.261719 120.714844 102.105469 122.085938 103.074219 123.691406 L 104.824219 126.609375 L 105.558594 126.597656 C 105.941406 126.597656 106.324219 126.585938 106.382812 126.585938 C 106.453125 126.574219 106.5 125.0625 106.5 122.308594 L 106.5 118.027344 L 105.726562 118.058594 L 104.941406 118.097656 L 104.964844 120.980469 C 105 124.175781 105.023438 124.128906 104.285156 122.859375 C 103.617188 121.691406 102.796875 120.324219 102.09375 119.15625 L 101.402344 118.035156 L 99.574219 118.035156 Z M 99.574219 122.308594 "/>
<path style=" stroke:none;fill-rule:nonzero;fill:rgb(0%,0%,0%);fill-opacity:1;" d="M 107.699219 118.199219 C 107.667969 118.285156 107.652344 118.605469 107.675781 118.917969 L 107.714844 119.480469 L 108.902344 119.511719 L 110.074219 119.550781 L 110.074219 125.121094 L 110.882812 124.324219 L 111.691406 123.535156 L 111.691406 119.535156 L 114.128906 119.535156 L 114.09375 118.808594 L 114.058594 118.097656 L 110.90625 118.058594 C 108.308594 118.035156 107.761719 118.058594 107.699219 118.199219 Z M 107.699219 118.199219 "/>
<path style=" stroke:none;fill-rule:nonzero;fill:rgb(0%,0%,0%);fill-opacity:1;" d="M 38.308594 124.941406 L 38.308594 126.574219 L 39.925781 126.574219 L 39.925781 124.894531 L 38.308594 123.300781 Z M 38.308594 124.941406 "/>
<path style=" stroke:none;fill-rule:nonzero;fill:rgb(0%,0%,0%);fill-opacity:1;" d="M 110.847656 124.476562 L 110.0625 125.273438 L 110.097656 125.941406 L 110.132812 126.621094 L 110.882812 126.585938 C 111.300781 126.574219 111.644531 126.542969 111.667969 126.535156 C 111.679688 126.511719 111.679688 125.859375 111.667969 125.085938 L 111.632812 123.679688 Z M 110.847656 124.476562 "/>
</g>
</svg>
